<?xml version="1.0" encoding="UTF-8" standalone="no"?>
<!-- Created with Inkscape (http://www.inkscape.org/) -->

<svg
   width="124"
   height="62"
   viewBox="0 0 32.808332 16.404162"
   version="1.1"
   id="svg1"
   xml:space="preserve"
   inkscape:version="1.4 (86a8ad7, 2024-10-11)"
   sodipodi:docname="logo_wide_full_prop.svg"
   xmlns:inkscape="http://www.inkscape.org/namespaces/inkscape"
   xmlns:sodipodi="http://sodipodi.sourceforge.net/DTD/sodipodi-0.dtd"
   xmlns="http://www.w3.org/2000/svg"
   xmlns:svg="http://www.w3.org/2000/svg"><sodipodi:namedview
     id="namedview1"
     pagecolor="#2d2d2f"
     bordercolor="#000000"
     borderopacity="0.25"
     inkscape:showpageshadow="2"
     inkscape:pageopacity="0.0"
     inkscape:pagecheckerboard="0"
     inkscape:deskcolor="#d1d1d1"
     inkscape:document-units="px"
     inkscape:clip-to-page="false"
     inkscape:zoom="11.313709"
     inkscape:cx="52.944618"
     inkscape:cy="26.604891"
     inkscape:window-width="3440"
     inkscape:window-height="1369"
     inkscape:window-x="-8"
     inkscape:window-y="-8"
     inkscape:window-maximized="1"
     inkscape:current-layer="layer2"
     showgrid="false" /><defs
     id="defs1" /><g
     inkscape:groupmode="layer"
     id="layer2"
     inkscape:label="Layer 2"
     style="opacity:1"><text
       xml:space="preserve"
       style="font-style:normal;font-variant:normal;font-weight:normal;font-stretch:normal;font-size:10.5833px;line-height:0.7;font-family:'Cambria Math';-inkscape-font-specification:'Cambria Math';text-align:start;letter-spacing:0.0132292px;word-spacing:2.00025px;writing-mode:lr-tb;direction:ltr;text-anchor:start;fill:#ffffff;fill-opacity:1;stroke-width:0.7366"
       x="7.3384371"
       y="7.8919573"
       id="text6"><tspan
         sodipodi:role="line"
         id="tspan6"
         style="font-style:normal;font-variant:normal;font-weight:normal;font-stretch:normal;font-size:10.5833px;font-family:'Cambria Math';-inkscape-font-specification:'Cambria Math';fill:#ffffff;fill-opacity:1;stroke-width:0.7366"
         x="7.3384371"
         y="7.8919573">Ntwo</tspan></text><path
       id="path1"
       style="opacity:1;fill:#bc1bd9;fill-opacity:1;stroke-width:0.145256;stroke-linecap:round;stroke-linejoin:round;paint-order:markers stroke fill"
       inkscape:transform-center-x="-1.2645107"
       inkscape:transform-center-y="-0.78488557"
       d="m 4.5538762,1.2290636 c 0,0 -0.6356256,0.1318018 -0.7621308,0.8063551 l 0.601477,2.8151938 c -0.02516,-0.061831 0.3150785,1.9556474 1.7636918,4.043958 A 0.85943854,0.85943854 0 0 0 6.0960729,9.4797848 L 4.9550831,10.414613 c -0.8857916,0.981282 -2.456711,3.641698 -3.7096491,5.021296 0,0 0.4401562,0.477801 1.0839586,0.240009 l 2.1062222,-1.961652 c -0.040143,0.05333 1.5169407,-1.274387 2.565179,-3.589783 A 0.85943854,0.85943854 0 0 0 7.5241165,9.8873387 L 8.9023607,10.41124 c 1.2920533,0.279541 4.3809163,0.316874 6.2012113,0.716468 0,0 0.195511,-0.61927 -0.331281,-1.059173 L 12.022256,9.2185903 c 0.06622,0.00822 -1.859634,-0.6808404 -4.3886238,-0.4374531 A 0.85943854,0.85943854 0 0 0 7.370786,8.5340868 0.85943854,0.85943854 0 0 0 7.174439,8.4490492 L 6.9583703,6.9900719 C 6.5711168,5.7261179 5.0944209,3.0125871 4.5538762,1.2290636 Z m 2.3698373,7.69838 A 0.34320903,0.34320903 0 0 1 7.2708432,9.2665305 0.34320903,0.34320903 0 0 1 6.9317568,9.6136596 0.34320903,0.34320903 0 0 1 6.5841105,9.2745798 0.34320903,0.34320903 0 0 1 6.9237135,8.9274436 Z" /><path
       id="path2"
       style="opacity:1;fill:#1bd977;fill-opacity:1;stroke-width:0.145256;stroke-linecap:round;stroke-linejoin:round;paint-order:markers stroke fill"
       inkscape:transform-center-x="-0.92421285"
       inkscape:transform-center-y="-1.0995267"
       d="m 5.2637714,1.0527684 c 0,0 -0.6446941,0.075902 -0.8295091,0.7368626 L 4.7880901,4.6465343 C 4.7684148,4.5827458 4.9315238,6.6222008 6.1926164,8.8288197 A 0.85943854,0.85943854 0 0 0 6.0810018,9.4065044 L 4.8628782,10.238332 c -0.9679453,0.900346 -2.7647573,3.413723 -4.13316764,4.678871 0,0 0.39683824,0.514345 1.05891574,0.333569 l 2.2691766,-1.770618 c -0.044638,0.04963 1.6222384,-1.137328 2.8682879,-3.352553 A 0.85943854,0.85943854 0 0 0 7.4680906,9.9369697 l 1.3273386,0.6420293 c 1.2627728,0.391087 4.3366288,0.697491 6.1151698,1.254213 0,0 0.24874,-0.599874 -0.237708,-1.084016 L 12.007398,9.6628047 C 12.072651,9.6767694 10.21418,8.8224774 7.6736014,8.8445225 A 0.85943854,0.85943854 0 0 0 7.4332873,8.5755037 0.85943854,0.85943854 0 0 0 7.2450989,8.4736769 L 7.1570107,7.0014198 C 6.8813917,5.7085242 5.6468148,2.8766166 5.2637714,1.0527684 Z M 6.9536327,8.9283987 A 0.34320903,0.34320903 0 0 1 7.2698881,9.2964496 0.34320903,0.34320903 0 0 1 6.9018377,9.6127044 0.34320903,0.34320903 0 0 1 6.5850671,9.2446156 0.34320903,0.34320903 0 0 1 6.9536327,8.9283987 Z" /><path
       id="path3"
       style="opacity:1;fill:#ffffff;fill-opacity:1;stroke-width:0.145256;stroke-linecap:round;stroke-linejoin:round;paint-order:markers stroke fill"
       inkscape:transform-center-x="-0.58099845"
       inkscape:transform-center-y="-1.4020624"
       d="m 5.9863304,0.93901551 c 0,0 -0.6488562,0.0194244 -0.8905744,0.66176209 L 5.1992418,4.4776477 C 5.1852009,4.4123871 5.169939,6.4582973 6.2339133,8.7664308 A 0.85943854,0.85943854 0 0 0 6.0723749,9.3321893 L 4.7863881,10.054685 c -1.0427324,0.812558 -3.0517622,3.159768 -4.52523024,4.300837 0,0 0.3505,0.546975 1.02581384,0.424591 l 2.4148612,-1.566109 c -0.048794,0.04555 1.71519,-0.991613 3.1495674,-3.089808 A 0.85943854,0.85943854 0 0 0 7.4079523,9.9815288 L 8.6742834,10.7368 c 1.2238824,0.499657 4.2593356,1.072799 5.9825876,1.782413 0,0 0.300076,-0.575912 -0.142325,-1.100609 l -2.560664,-1.31457 c 0.06379,0.0196 -1.713155,-0.993419 -4.2459879,-1.1928838 A 0.85943854,0.85943854 0 0 0 7.491941,8.6222103 0.85943854,0.85943854 0 0 0 7.3133435,8.5043693 L 7.3539062,7.0300372 C 7.1920193,5.7180397 6.2089573,2.7893079 5.9863304,0.93901551 Z M 6.9833548,8.9319578 A 0.34320903,0.34320903 0 0 1 7.266329,9.3261716 0.34320903,0.34320903 0 0 1 6.8721157,9.6091453 0.34320903,0.34320903 0 0 1 6.5886316,9.2148488 0.34320903,0.34320903 0 0 1 6.9833548,8.9319578 Z" /><path
       d="m 12.113324,5.0962712 q 0.186035,0.3100576 0.310058,0.5426008 0.12919,0.2325432 0.263549,0.5219303 h 0.06718 q -0.02584,-0.3152252 -0.04651,-1.2505657 -0.02067,-0.940508 -0.02067,-1.6949815 V 2.1300534 q 0,-0.3565662 -0.02067,-0.5219303 -0.02067,-0.165364 -0.07751,-0.2532137 -0.05168,-0.08785 -0.149861,-0.1395259 -0.09302,-0.056844 -0.330728,-0.1240231 V 0.83814673 h 1.860345 V 1.0913604 q -0.232543,0.062012 -0.330728,0.1136878 -0.09302,0.051676 -0.155029,0.1343583 -0.05684,0.082682 -0.08785,0.2480461 -0.03101,0.1653641 -0.03101,0.5426008 V 7.922963 H 12.717937 L 9.8395684,3.0963996 Q 9.5708518,2.6468161 9.4571641,2.440111 9.3434763,2.233406 9.2452914,2.0318685 h -0.08785 q 0.036173,0.3979073 0.051676,1.4417679 0.015503,1.038693 0.015503,2.0722183 v 1.0541959 q 0,0.346231 0.02067,0.5064274 0.025838,0.1601964 0.077514,0.2532137 0.056844,0.093017 0.1601964,0.1550288 0.1085202,0.062011 0.346231,0.1240231 V 7.8919573 H 7.9430494 V 7.6387436 Q 8.2634423,7.5560615 8.3719624,7.4578766 8.4804826,7.3545241 8.5114884,7.1684895 8.5476617,6.982455 8.5476617,6.6000506 V 2.1300534 q 0,-0.3565662 -0.025838,-0.5167626 Q 8.4959855,1.4479267 8.433974,1.360077 8.3771301,1.2670598 8.2789452,1.2153835 8.1807602,1.1585396 7.9430494,1.0913604 V 0.83814673 h 1.6174672 z m 2.633217,-1.8861838 q 0.258381,-0.041341 0.418577,-0.1446935 0.160197,-0.1033526 0.248046,-0.263549 0.09302,-0.165364 0.144694,-0.4082425 0.05168,-0.2480461 0.10852,-0.7183001 h 0.733803 v 1.2764038 h 1.669144 v 0.5219303 h -1.669144 v 2.2995939 q 0,0.5012598 0.04134,0.8009822 0.04134,0.2945547 0.155029,0.4650864 0.113688,0.165364 0.258381,0.2377108 0.144694,0.072347 0.372069,0.072347 0.206705,0 0.387572,-0.082682 0.180867,-0.08785 0.356567,-0.248046 l 0.232543,0.2790518 q -0.366902,0.3565663 -0.69763,0.5167627 -0.32556,0.1601964 -0.676959,0.1601964 -0.666624,0 -0.992184,-0.3927396 Q 15.511349,7.1839924 15.511349,6.3416693 V 3.4736364 h -0.764808 z m 7.526958,0.8216527 -1.353918,3.8860553 H 20.20128 L 18.96105,4.0834163 Q 18.842195,3.7113472 18.759513,3.561486 18.681998,3.4064572 18.588981,3.3341105 18.501131,3.2565961 18.299594,3.2049198 V 2.9517061 h 2.041212 v 0.2532137 q -0.299722,0.062012 -0.408242,0.1653641 -0.103353,0.098185 -0.103353,0.2997223 0,0.1395259 0.03101,0.2945547 0.03101,0.1498612 0.09302,0.3513987 l 0.811318,2.6354896 1.32808,-3.9997431 h 0.728635 l 1.126543,3.9997431 0.909502,-2.5269695 q 0.07235,-0.1963698 0.118856,-0.3720691 0.04651,-0.1808669 0.04651,-0.3358958 0,-0.2170403 -0.118855,-0.3358957 -0.113688,-0.1188554 -0.39274,-0.1756993 V 2.9517061 h 1.803502 v 0.2532137 q -0.144694,0.036173 -0.21704,0.077514 -0.07235,0.036173 -0.144694,0.1136878 -0.06718,0.072347 -0.155029,0.2325432 -0.08268,0.1550288 -0.211872,0.4857569 l -1.493445,3.8033733 h -0.697629 z m 6.700138,3.9428992 q -1.074866,0 -1.643305,-0.6304505 -0.563272,-0.635618 -0.563272,-1.8758485 0,-0.8526584 0.294555,-1.4417678 0.299723,-0.5891095 0.816485,-0.873329 0.516763,-0.2893871 1.178219,-0.2893871 1.105872,0 1.674311,0.6459534 0.568439,0.6407857 0.568439,1.8448427 0,0.8578261 -0.284219,1.4469355 -0.28422,0.5891095 -0.80615,0.8836642 -0.52193,0.2893871 -1.235063,0.2893871 z M 27.743742,5.3598202 q 0,1.0645311 0.335896,1.6381377 0.341063,0.5684389 0.971513,0.5684389 0.346231,0 0.58911,-0.1653641 0.242878,-0.1705316 0.39274,-0.4547511 0.155028,-0.2842195 0.222208,-0.6562886 0.06718,-0.3772368 0.06718,-0.7854793 0,-0.7596411 -0.170532,-1.2609009 -0.165364,-0.5012598 -0.454751,-0.733803 -0.289387,-0.2377109 -0.661456,-0.2377109 -0.625283,0 -0.961179,0.5426009 -0.330728,0.5426008 -0.330728,1.5451204 z"
       id="text1"
       style="font-size:10.5833px;line-height:0.7;font-family:'Cambria Math';-inkscape-font-specification:'Cambria Math';letter-spacing:0.0132292px;word-spacing:2.00025px;fill:#ffffff;stroke-width:0.7366"
       aria-label="Ntwo" /></g></svg>
