<?xml version="1.0" encoding="UTF-8" standalone="no"?>
<!-- Created with Inkscape (http://www.inkscape.org/) -->

<svg
   width="48"
   height="48"
   viewBox="0 0 12.7 12.7"
   version="1.1"
   id="svg1"
   xml:space="preserve"
   inkscape:version="1.4 (86a8ad7, 2024-10-11)"
   sodipodi:docname="logo_square.svg"
   xmlns:inkscape="http://www.inkscape.org/namespaces/inkscape"
   xmlns:sodipodi="http://sodipodi.sourceforge.net/DTD/sodipodi-0.dtd"
   xmlns="http://www.w3.org/2000/svg"
   xmlns:svg="http://www.w3.org/2000/svg"><sodipodi:namedview
     id="namedview1"
     pagecolor="#ffffff"
     bordercolor="#000000"
     borderopacity="0.25"
     inkscape:showpageshadow="2"
     inkscape:pageopacity="0.0"
     inkscape:pagecheckerboard="0"
     inkscape:deskcolor="#d1d1d1"
     inkscape:document-units="px"
     inkscape:clip-to-page="true"
     inkscape:zoom="16.000001"
     inkscape:cx="3.6249998"
     inkscape:cy="31.437498"
     inkscape:window-width="3440"
     inkscape:window-height="1369"
     inkscape:window-x="-8"
     inkscape:window-y="-8"
     inkscape:window-maximized="1"
     inkscape:current-layer="layer2"
     showgrid="false" /><defs
     id="defs1" /><g
     inkscape:groupmode="layer"
     id="layer3"
     inkscape:label="background"
     style="display:inline"
     sodipodi:insensitive="true"><rect
       style="fill:#2d2d2f;fill-opacity:1;stroke-width:0.616291"
       id="rect5"
       width="12.7"
       height="12.7"
       x="4.4408921e-16"
       y="-2.3721765e-15" /></g><g
     inkscape:groupmode="layer"
     id="layer2"
     inkscape:label="Layer 2"
     style="opacity:1"><g
       id="g1"><text
         xml:space="preserve"
         style="font-style:normal;font-variant:normal;font-weight:normal;font-stretch:normal;font-size:6.87917px;line-height:0.7;font-family:'Cambria Math';-inkscape-font-specification:'Cambria Math';text-align:start;letter-spacing:0.0132292px;word-spacing:2.00025px;writing-mode:lr-tb;direction:ltr;text-anchor:start;fill:#ffffff;fill-opacity:1;stroke-width:0.7366"
         x="3.9319272"
         y="7.0320616"
         id="text6"><tspan
           sodipodi:role="line"
           id="tspan6"
           style="font-style:normal;font-variant:normal;font-weight:normal;font-stretch:normal;font-size:6.87917px;font-family:'Cambria Math';-inkscape-font-specification:'Cambria Math';fill:#ffffff;fill-opacity:1;stroke-width:0.7366"
           x="3.9319272"
           y="7.0320616">N</tspan></text><text
         xml:space="preserve"
         style="font-size:2.64583px;line-height:0.7;font-family:Consolas;-inkscape-font-specification:Consolas;text-align:start;letter-spacing:0.0132292px;word-spacing:2.00025px;writing-mode:lr-tb;direction:ltr;text-anchor:start;fill:#ffffff;fill-opacity:1;stroke-width:0.7366"
         x="7.873075"
         y="8.3949652"
         id="text7"><tspan
           sodipodi:role="line"
           id="tspan7"
           style="font-style:normal;font-variant:normal;font-weight:normal;font-stretch:normal;font-size:2.64583px;font-family:'Cambria Math';-inkscape-font-specification:'Cambria Math';fill:#ffffff;fill-opacity:1;stroke-width:0.7366"
           x="7.873075"
           y="8.3949652">two</tspan></text></g><path
       id="path1"
       style="opacity:1;fill:#bc1bd9;stroke-width:0.145256;stroke-linecap:round;stroke-linejoin:round;paint-order:markers stroke fill;fill-opacity:1"
       inkscape:transform-center-x="-1.2645107"
       inkscape:transform-center-y="-0.78488557"
       d="m 1.2465852,1.2290636 c 0,0 -0.63562555,0.1318018 -0.76213075,0.8063551 L 1.0859314,4.8506125 c -0.02516,-0.061831 0.3150785,1.9556474 1.7636918,4.043958 A 0.85943854,0.85943854 0 0 0 2.7887819,9.4797848 L 1.6477921,10.414613 c -0.8857916,0.981282 -2.45671095,3.641698 -3.7096491,5.021296 0,0 0.4401562,0.477801 1.08395863,0.240009 L 1.1283238,13.714266 c -0.040143,0.05333 1.5169407,-1.274387 2.565179,-3.589783 A 0.85943854,0.85943854 0 0 0 4.2168255,9.8873387 L 5.5950697,10.41124 c 1.2920534,0.279541 4.3809167,0.316874 6.2012113,0.716468 0,0 0.195511,-0.61927 -0.331281,-1.059173 L 8.7149648,9.2185903 C 8.7811858,9.2268147 6.855331,8.5377499 4.3263412,8.7811372 A 0.85943854,0.85943854 0 0 0 4.063495,8.5340868 0.85943854,0.85943854 0 0 0 3.867148,8.4490492 L 3.6510793,6.9900719 C 3.2638258,5.7261179 1.7871299,3.0125871 1.2465852,1.2290636 Z m 2.3698373,7.69838 A 0.34320903,0.34320903 0 0 1 3.9635522,9.2665305 0.34320903,0.34320903 0 0 1 3.6244658,9.6136596 0.34320903,0.34320903 0 0 1 3.2768195,9.2745798 0.34320903,0.34320903 0 0 1 3.6164225,8.9274436 Z" /><path
       id="path2"
       style="opacity:1;fill:#1bd977;fill-opacity:1;stroke-width:0.145256;stroke-linecap:round;stroke-linejoin:round;paint-order:markers stroke fill"
       inkscape:transform-center-x="-0.92421285"
       inkscape:transform-center-y="-1.0995267"
       d="m 1.9564804,1.0527684 c 0,0 -0.6446941,0.075902 -0.8295091,0.7368626 L 1.4807991,4.6465343 C 1.4611238,4.5827458 1.6242328,6.6222008 2.8853254,8.8288197 A 0.85943854,0.85943854 0 0 0 2.7737108,9.4065044 L 1.5555872,10.238332 c -0.96794527,0.900346 -2.7647573,3.413723 -4.1331676,4.678871 0,0 0.3968382,0.514345 1.0589157,0.333569 L 0.75051191,13.480154 C 0.70587365,13.529782 2.3727503,12.342826 3.6187998,10.127601 A 0.85943854,0.85943854 0 0 0 4.1607996,9.9369697 l 1.3273386,0.6420293 c 1.2627731,0.391087 4.3366286,0.697491 6.1151698,1.254213 0,0 0.24874,-0.599874 -0.237708,-1.084016 L 8.7001074,9.6628047 C 8.7653596,9.6767694 6.9068892,8.8224774 4.3663104,8.8445225 A 0.85943854,0.85943854 0 0 0 4.1259963,8.5755037 0.85943854,0.85943854 0 0 0 3.9378079,8.4736769 L 3.8497197,7.0014198 C 3.5741007,5.7085242 2.3395238,2.8766166 1.9564804,1.0527684 Z M 3.6463417,8.9283987 A 0.34320903,0.34320903 0 0 1 3.9625971,9.2964496 0.34320903,0.34320903 0 0 1 3.5945467,9.6127044 0.34320903,0.34320903 0 0 1 3.2777761,9.2446156 0.34320903,0.34320903 0 0 1 3.6463417,8.9283987 Z" /><path
       id="path3"
       style="opacity:1;fill:#ffffff;fill-opacity:1;stroke-width:0.145256;stroke-linecap:round;stroke-linejoin:round;paint-order:markers stroke fill"
       inkscape:transform-center-x="-0.58099845"
       inkscape:transform-center-y="-1.4020624"
       d="m 2.6790394,0.93901551 c 0,0 -0.6488562,0.0194244 -0.8905744,0.66176209 L 1.8919508,4.4776477 C 1.8779099,4.4123871 1.862648,6.4582973 2.9266223,8.7664308 A 0.85943854,0.85943854 0 0 0 2.7650839,9.3321893 L 1.4790971,10.054685 c -1.04273232,0.812558 -3.0517622,3.159768 -4.5252302,4.300837 0,0 0.3505,0.546975 1.0258138,0.424591 L 0.39454191,13.214004 C 0.34574815,13.259553 2.1097319,12.222391 3.5441093,10.124196 A 0.85943854,0.85943854 0 0 0 4.1006613,9.9815288 L 5.3669924,10.7368 c 1.2238824,0.499657 4.2593361,1.072799 5.9825876,1.782413 0,0 0.300076,-0.575912 -0.142325,-1.100609 L 8.6465907,10.104034 C 8.7103775,10.123633 6.9334356,9.110615 4.4006031,8.9111502 A 0.85943854,0.85943854 0 0 0 4.18465,8.6222103 0.85943854,0.85943854 0 0 0 4.0060525,8.5043693 L 4.0466152,7.0300372 C 3.8847283,5.7180397 2.9016663,2.7893079 2.6790394,0.93901551 Z M 3.6760638,8.9319578 A 0.34320903,0.34320903 0 0 1 3.959038,9.3261716 0.34320903,0.34320903 0 0 1 3.5648247,9.6091453 0.34320903,0.34320903 0 0 1 3.2813406,9.2148488 0.34320903,0.34320903 0 0 1 3.6760638,8.9319578 Z" /><g
       id="g2"><path
         d="m 7.0356152,5.214859 q 0.1209229,0.2015382 0.2015382,0.3526918 0.083974,0.1511536 0.1713074,0.3392559 h 0.043667 Q 7.4353326,5.7019096 7.4218967,5.0939361 7.4084608,4.4826036 7.4084608,3.992194 V 3.2868104 q 0,-0.2317689 -0.013436,-0.339256 -0.013436,-0.107487 -0.050385,-0.1645895 -0.03359,-0.057103 -0.09741,-0.090692 -0.060461,-0.036949 -0.2149741,-0.080615 V 2.4470679 h 1.2092291 v 0.1645896 q -0.1511536,0.040308 -0.214974,0.073897 -0.060461,0.03359 -0.1007691,0.087333 -0.036949,0.053743 -0.057103,0.1612305 -0.020154,0.1074871 -0.020154,0.3526919 v 3.765405 H 7.4286147 L 5.5576685,3.9149377 Q 5.3830021,3.6227073 5.3091048,3.4883485 5.2352074,3.3539898 5.171387,3.2229899 h -0.057103 q 0.023513,0.2586407 0.03359,0.9371526 0.010077,0.6751529 0.010077,1.3469468 v 0.6852299 q 0,0.2250509 0.013436,0.329179 0.016795,0.104128 0.050385,0.1645895 0.036949,0.060461 0.104128,0.1007691 0.070538,0.040308 0.225051,0.080615 V 7.0320616 H 4.3249267 V 6.8674721 q 0.2082561,-0.053744 0.2787944,-0.117564 0.070538,-0.067179 0.090692,-0.1881023 0.023513,-0.1209229 0.023513,-0.3694866 V 3.2868104 q 0,-0.2317689 -0.016795,-0.335897 -0.016795,-0.107487 -0.057103,-0.1645895 -0.036949,-0.060462 -0.1007691,-0.094051 -0.06382,-0.036949 -0.218333,-0.080615 V 2.4470679 h 1.0513575 z"
         id="text1"
         style="font-size:6.87917px;line-height:0.7;font-family:'Cambria Math';-inkscape-font-specification:'Cambria Math';letter-spacing:0.0132292px;word-spacing:2.00025px;fill:#ffffff;stroke-width:0.7366"
         aria-label="N" /><path
         style="font-size:2.64583px;line-height:0.7;font-family:'Cambria Math';-inkscape-font-specification:'Cambria Math';letter-spacing:0.0132292px;word-spacing:2.00025px;fill:#ffffff;stroke-width:0.7366"
         d="m 7.9208756,7.2244955 q 0.064596,-0.010335 0.1046447,-0.036173 0.040049,-0.025838 0.062012,-0.065887 0.023254,-0.041341 0.036174,-0.1020609 0.012919,-0.062012 0.02713,-0.1795753 H 8.3342866 V 7.1599 H 8.7515732 V 7.2903829 H 8.3342866 v 0.5748995 q 0,0.1253152 0.010335,0.2002459 0.010335,0.073639 0.038757,0.1162719 0.028422,0.041341 0.064595,0.059428 0.036173,0.018087 0.093017,0.018087 0.051676,0 0.096893,-0.02067 0.045217,-0.021962 0.089142,-0.062012 l 0.058136,0.069763 q -0.091726,0.089142 -0.1744078,0.1291909 -0.08139,0.040049 -0.1692401,0.040049 -0.1666562,0 -0.2480465,-0.098185 -0.08139,-0.099477 -0.08139,-0.3100582 V 7.2903829 H 7.9208756 Z M 9.8125407,7.429909 9.4740606,8.4014247 H 9.2944852 L 8.984427,7.4428281 Q 8.9547131,7.3498107 8.9340425,7.3123453 8.9146639,7.273588 8.8914095,7.2555013 8.8694471,7.2361227 8.8190626,7.2232036 V 7.1599 h 0.5103041 v 0.063304 q -0.074931,0.015503 -0.1020608,0.041341 -0.025838,0.024546 -0.025838,0.074931 0,0.034882 0.00775,0.073639 0.00775,0.037465 0.023254,0.08785 L 9.4353033,8.1598377 9.7673239,7.1599 h 0.1821592 l 0.2816359,0.9999377 0.227376,-0.6317436 q 0.01809,-0.049092 0.02971,-0.093017 0.01163,-0.045217 0.01163,-0.083974 0,-0.05426 -0.02971,-0.083974 -0.02842,-0.029714 -0.09819,-0.043925 V 7.1599 h 0.450877 v 0.063304 q -0.03617,0.00904 -0.05426,0.019379 -0.01809,0.00904 -0.03617,0.028422 -0.01679,0.018087 -0.03876,0.058136 -0.02067,0.038757 -0.05297,0.1214395 L 10.267293,8.4014247 H 10.092885 Z M 11.4975,8.4156357 q -0.268717,0 -0.410827,-0.1576129 -0.140818,-0.1589048 -0.140818,-0.468963 0,-0.213165 0.07364,-0.3604427 0.07493,-0.1472776 0.204122,-0.2183326 0.129191,-0.072347 0.294555,-0.072347 0.276469,0 0.418579,0.1614886 0.14211,0.1601968 0.14211,0.4612116 0,0.2144569 -0.07106,0.3617345 -0.07105,0.1472777 -0.201538,0.2209165 -0.130483,0.072347 -0.308767,0.072347 z m -0.307474,-0.653706 q 0,0.2661333 0.08397,0.4095352 0.08527,0.14211 0.242879,0.14211 0.08656,0 0.147278,-0.041341 0.06072,-0.042633 0.09819,-0.113688 0.03876,-0.071055 0.05555,-0.1640725 0.01679,-0.094309 0.01679,-0.1963702 0,-0.1899106 -0.04263,-0.3152258 -0.04134,-0.1253152 -0.113688,-0.1834511 -0.07235,-0.059428 -0.165365,-0.059428 -0.156321,0 -0.240295,0.1356505 -0.08268,0.1356504 -0.08268,0.3862808 z"
         id="text2"
         aria-label="two" /></g></g></svg>
