<?xml version="1.0" encoding="UTF-8" standalone="no"?>
<svg
   height="16"
   viewBox="0 0 16 16"
   width="16"
   version="1.1"
   id="svg1"
   sodipodi:docname="Gear.svg"
   inkscape:version="1.4 (86a8ad7, 2024-10-11)"
   xmlns:inkscape="http://www.inkscape.org/namespaces/inkscape"
   xmlns:sodipodi="http://sodipodi.sourceforge.net/DTD/sodipodi-0.dtd"
   xmlns="http://www.w3.org/2000/svg"
   xmlns:svg="http://www.w3.org/2000/svg">
  <defs
     id="defs1" />
  <sodipodi:namedview
     id="namedview1"
     pagecolor="#ffffff"
     bordercolor="#000000"
     borderopacity="0.25"
     inkscape:showpageshadow="2"
     inkscape:pageopacity="0.0"
     inkscape:pagecheckerboard="0"
     inkscape:deskcolor="#d1d1d1"
     inkscape:zoom="32"
     inkscape:cx="15.34375"
     inkscape:cy="13.53125"
     inkscape:window-width="3440"
     inkscape:window-height="1369"
     inkscape:window-x="-8"
     inkscape:window-y="-8"
     inkscape:window-maximized="1"
     inkscape:current-layer="svg1" />
  <path
     id="path1"
     d="M 7 1 L 6.4355469 3.2578125 A 4.947 4.947 0 0 0 5.7460938 3.5371094 L 3.7578125 2.34375 L 2.34375 3.7578125 L 3.5390625 5.7519531 C 3.444049 5.9394352 3.3635134 6.1342555 3.2929688 6.3320312 C 3.2792692 6.3672412 3.263898 6.4014264 3.2519531 6.4375 L 1 7 L 1 9 L 3.2578125 9.5644531 C 3.30295 9.7055077 3.365045 9.8393879 3.4238281 9.9746094 C 3.427556 9.9831849 3.4318494 9.9914124 3.4355469 10 A 4.992 4.992 0 0 0 3.5371094 10.251953 L 2.34375 12.242188 L 3.7578125 13.65625 L 5.7519531 12.460938 A 5.012 5.012 0 0 0 6.4375 12.746094 L 6.9980469 15 L 8.9980469 15 L 9.0136719 15 L 9.578125 12.742188 A 4.947 4.947 0 0 0 10.267578 12.462891 L 12.255859 13.65625 L 13.669922 12.242188 L 12.474609 10.248047 C 12.569623 10.060565 12.650158 9.8657446 12.720703 9.6679688 C 12.734403 9.6327588 12.749774 9.5985736 12.761719 9.5625 L 15.013672 9 L 15.013672 7 L 12.757812 6.4355469 A 4.992 4.992 0 0 0 12.730469 6.3671875 C 12.692166 6.2609878 12.646756 6.1579301 12.601562 6.0546875 A 4.992 4.992 0 0 0 12.476562 5.7480469 L 13.671875 3.7578125 L 12.257812 2.34375 L 10.263672 3.5390625 A 5.012 5.012 0 0 0 9.5761719 3.2539062 L 9.015625 1 L 7.015625 1 L 7 1 z M 7.6757812 6.0058594 A 2.037 2.037 0 0 1 10.017578 7.75 A 2.037 2.037 0 0 1 10.019531 7.7714844 A 2.037 2.037 0 0 1 10.001953 8.3515625 A 2.037 2.037 0 0 1 5.9960938 8.25 A 2.037 2.037 0 0 1 5.9941406 8.2285156 A 2.037 2.037 0 0 1 6.0117188 7.6484375 A 2.037 2.037 0 0 1 7.6757812 6.0058594 z "
     style="fill:#e0e0e0;fill-opacity:1" />
</svg>
